<?xml version="1.0" encoding="utf-8"?>
<svg id="master-artboard" viewBox="0 0 288.74700927734375 293.2170715332031" version="1.1" xmlns="http://www.w3.org/2000/svg" x="0px" y="0px" width="288.74700927734375px" height="293.2170715332031px" enable-background="new 0 0 1400 980"><rect id="ee-background" x="0" y="0" width="288.74700927734375" height="293.2170715332031" style="fill: white; fill-opacity: 0; pointer-events: none;"/><defs><radialGradient id="gradient-0" gradientUnits="objectBoundingBox" cx="0.5" cy="0.5" r="0.5">
                <stop offset="0" style="stop-color: #ffffff"/>
                <stop offset="1" style="stop-color: #cccccc"/>
              </radialGradient></defs>







<g id="XMLID_188_" transform="matrix(1, 0, 0, 1, -1132.043622970581, -434.0547876358032)">
		<path id="XMLID_128_" fill="#EC7863" d="M1278.9,710.3l-56.3-14.3c-17.5-4.4-33.7,10.4-31,28.2l9,57.4l-29.7-49.9&#10;&#9;&#9;&#9;c-9.2-15.5-31.2-16.5-41.8-1.9l-34.2,47l14.3-56.3c4.4-17.5-10.4-33.7-28.2-31l-57.4,9l49.9-29.7c15.5-9.2,16.5-31.2,1.9-41.8&#10;&#9;&#9;&#9;l-47-34.2l56.3,14.3c17.5,4.4,33.7-10.4,31-28.2l-9-57.4l29.7,49.9c9.2,15.5,31.2,16.5,41.8,1.9l34.2-47l-14.3,56.3&#10;&#9;&#9;&#9;c-4.4,17.5,10.4,33.7,28.2,31l57.4-9l-49.9,29.7c-15.5,9.2-16.5,31.2-1.9,41.8L1278.9,710.3z" style="fill: rgb(29, 155, 240);" transform="matrix(0.9999999999999999, 0, 0, 0.9999999999999999, 121.22591109098914, -75.40367412545373)"/>
	<path d="M 1107.458251953125 646.7574462890625 L 1114.9986572265625 639.797119140625" style="fill: rgb(29, 155, 240); fill-opacity: 1; stroke: rgb(0, 0, 0); stroke-opacity: 1; stroke-width: 0; paint-order: fill;" transform="matrix(0.9999999999999999, 0, 0, 0.9999999999999999, 121.22591109098914, -75.40367412545373)"/><path d="M 1041.3350830078125 733.76171875 L 1054.095703125 725.6412963867188" style="fill: rgb(29, 155, 240); fill-opacity: 1; stroke: rgb(0, 0, 0); stroke-opacity: 1; stroke-width: 0; paint-order: fill;" transform="matrix(0.9999999999999999, 0, 0, 0.9999999999999999, 121.22591109098914, -75.40367412545373)"/></g><path id="XMLID_139_" fill="#732C2B" d="M1200.7,785.8c-1.4,0-2.8-0.7-3.6-2l-29.7-49.9c-3.7-6.1-9.9-9.9-17-10.2&#10;&#9;&#9;&#9;c-7.1-0.3-13.7,2.8-17.9,8.6l-34.2,47c-1.2,1.6-3.3,2.2-5.1,1.3c-1.8-0.8-2.8-2.9-2.3-4.8l14.3-56.3c1.8-6.9,0-14-4.8-19.2&#10;&#9;&#9;&#9;c-4.8-5.3-11.6-7.7-18.7-6.6l-57.4,9c-2,0.3-3.9-0.8-4.6-2.7c-0.7-1.9,0.1-4,1.8-5l49.9-29.7c6.1-3.7,9.9-9.9,10.2-17&#10;&#9;&#9;&#9;c0.3-7.1-2.8-13.7-8.6-17.9l-47-34.2c-1.6-1.2-2.2-3.3-1.3-5.1c0.8-1.8,2.8-2.8,4.8-2.3l56.3,14.3c6.9,1.8,14,0,19.2-4.8&#10;&#9;&#9;&#9;c5.3-4.8,7.7-11.6,6.6-18.7l-9-57.4c-0.3-2,0.8-3.9,2.7-4.6c1.9-0.7,4,0.1,5,1.8l29.7,49.9c3.7,6.1,9.9,9.9,17,10.2&#10;&#9;&#9;&#9;c7.2,0.3,13.7-2.8,17.9-8.6l34.2-47c1.2-1.6,3.3-2.2,5.1-1.3c1.8,0.8,2.8,2.9,2.3,4.8l-14.3,56.3c-1.8,6.9,0,14,4.8,19.2&#10;&#9;&#9;&#9;c4.8,5.3,11.6,7.7,18.7,6.6l57.4-9c2-0.3,3.9,0.8,4.6,2.7c0.7,1.9-0.1,4-1.8,5l-49.9,29.7c-6.1,3.7-9.9,9.9-10.2,17&#10;&#9;&#9;&#9;c-0.3,7.2,2.8,13.7,8.6,17.9l47,34.2c1.6,1.2,2.2,3.3,1.3,5.1c-0.8,1.8-2.9,2.8-4.8,2.3l-56.3-14.3c-6.9-1.8-14,0-19.2,4.8&#10;&#9;&#9;&#9;c-5.3,4.8-7.7,11.6-6.6,18.7l9,57.4c0.3,2-0.8,3.9-2.7,4.6C1201.6,785.7,1201.2,785.8,1200.7,785.8z M1149.4,715.3&#10;&#9;&#9;&#9;c0.5,0,0.9,0,1.4,0c9.8,0.5,18.7,5.8,23.8,14.2l18.7,31.4l-5.7-36.1c-1.5-9.7,1.9-19.5,9.2-26.2c7.3-6.6,17.3-9.2,26.9-6.7l35.4,9&#10;&#9;&#9;&#9;l-29.5-21.5c-8-5.8-12.5-15.1-12-25c0.5-9.8,5.8-18.7,14.3-23.8l31.4-18.7l-36.1,5.7c-9.7,1.5-19.5-1.9-26.2-9.2&#10;&#9;&#9;&#9;c-6.6-7.3-9.2-17.3-6.7-26.9l9-35.4l-21.5,29.5c-5.8,8-15.1,12.4-25,12c-9.8-0.5-18.7-5.8-23.8-14.3l-18.7-31.4l5.7,36.1&#10;&#9;&#9;&#9;c1.5,9.7-1.9,19.5-9.2,26.2c-7.3,6.6-17.3,9.2-26.9,6.7l-35.4-9l29.5,21.5c8,5.8,12.5,15.1,12,25c-0.5,9.8-5.8,18.7-14.3,23.8&#10;&#9;&#9;&#9;l-31.4,18.7l36.1-5.7c9.7-1.5,19.5,1.9,26.2,9.2c6.6,7.3,9.2,17.3,6.7,26.9l-9,35.4l21.5-29.5&#10;&#9;&#9;&#9;C1131.3,719.7,1140,715.3,1149.4,715.3z" transform="matrix(1, 0, 0, 1, -1007.9175853729248, -507.1383447647095)" style="fill: rgb(0, 0, 0);"/><path id="XMLID_83_" fill="#DE4D2E" d="M1289.1,651.5l-55.8,10.8c-17.3,3.3-25.6,23.3-15.7,37.8l31.9,47.1l-47.1-31.9&#10;&#9;&#9;&#9;c-14.6-9.9-34.5-1.6-37.8,15.7l-10.8,55.8L1143,731c-3.3-17.3-23.3-25.6-37.8-15.7l-47.1,31.9l31.9-47.1&#10;&#9;&#9;&#9;c9.9-14.6,1.6-34.5-15.7-37.8l-55.8-10.8l55.8-10.8c17.3-3.3,25.6-23.3,15.7-37.8l-31.9-47.1l47.1,31.9&#10;&#9;&#9;&#9;c14.6,9.9,34.5,1.6,37.8-15.7l10.8-55.8l10.8,55.8c3.3,17.3,23.3,25.6,37.8,15.7l47.1-31.9l-31.9,47.1&#10;&#9;&#9;&#9;c-9.9,14.6-1.6,34.5,15.7,37.8L1289.1,651.5z" transform="matrix(1, 0, 0, 1, -1006.7575511932373, -500.7580347061157)" style="fill: rgb(94, 218, 255); stroke: rgb(255, 247, 248);"/><path id="XMLID_96_" fill="#732C2B" d="M1153.7,792.8c-2.8,0-5.3-2-5.8-4.8l-10.8-55.8c-1.2-6.2-5.3-11.2-11.1-13.7&#10;&#9;&#9;&#9;c-5.9-2.4-12.3-1.8-17.5,1.8l-47.1,31.9c-2.4,1.6-5.5,1.3-7.5-0.7c-2-2-2.3-5.2-0.7-7.5l31.9-47.1c3.6-5.3,4.2-11.7,1.8-17.5&#10;&#9;&#9;&#9;c-2.4-5.9-7.4-9.9-13.7-11.1l-55.8-10.8c-2.8-0.5-4.8-3-4.8-5.8s2-5.3,4.8-5.8l55.8-10.8c6.2-1.2,11.2-5.3,13.7-11.1&#10;&#9;&#9;&#9;c2.4-5.9,1.8-12.3-1.8-17.5l-31.9-47.1c-1.6-2.4-1.3-5.5,0.7-7.5c2-2,5.2-2.3,7.5-0.7l47.1,31.9c5.3,3.6,11.7,4.2,17.5,1.8&#10;&#9;&#9;&#9;c5.9-2.4,9.9-7.4,11.1-13.7l10.8-55.8c0.5-2.8,3-4.8,5.8-4.8c2.8,0,5.3,2,5.8,4.8l10.8,55.8c1.2,6.2,5.3,11.2,11.1,13.7&#10;&#9;&#9;&#9;c5.9,2.4,12.3,1.8,17.5-1.8l47.1-31.9c2.4-1.6,5.5-1.3,7.5,0.7c2,2,2.3,5.2,0.7,7.5l-31.9,47.1c-3.6,5.3-4.2,11.7-1.8,17.5&#10;&#9;&#9;&#9;c2.4,5.9,7.4,9.9,13.7,11.1l55.8,10.8c2.8,0.5,4.8,3,4.8,5.8s-2,5.3-4.8,5.8l-55.8,10.8c-6.2,1.2-11.2,5.3-13.7,11.1&#10;&#9;&#9;&#9;c-2.4,5.9-1.8,12.3,1.8,17.5l31.9,47.1c1.6,2.4,1.3,5.5-0.7,7.5c-2,2-5.2,2.3-7.5,0.7l-47.1-31.9c-5.3-3.6-11.7-4.2-17.5-1.8&#10;&#9;&#9;&#9;c-5.9,2.4-9.9,7.4-11.1,13.7l-10.8,55.8C1159,790.8,1156.6,792.8,1153.7,792.8z M1118.8,705.2c3.9,0,7.9,0.8,11.7,2.3&#10;&#9;&#9;&#9;c9.5,3.9,16.3,12.3,18.3,22.4l4.9,25.5l4.9-25.5c1.9-10.1,8.8-18.5,18.3-22.4c9.5-3.9,20.2-2.8,28.7,2.9l21.6,14.6l-14.6-21.6&#10;&#9;&#9;&#9;c-5.8-8.5-6.8-19.3-2.9-28.7c3.9-9.5,12.3-16.3,22.4-18.3l25.5-4.9l-25.5-4.9c-10.1-1.9-18.5-8.8-22.4-18.3&#10;&#9;&#9;&#9;c-3.9-9.5-2.8-20.2,2.9-28.8l14.6-21.6l-21.6,14.6c-8.5,5.8-19.3,6.8-28.8,2.9c-9.5-3.9-16.3-12.3-18.3-22.4l-4.9-25.5l-4.9,25.5&#10;&#9;&#9;&#9;c-1.9,10.1-8.8,18.5-18.3,22.4c-9.5,3.9-20.2,2.8-28.7-2.9l-21.6-14.6l14.6,21.6c5.8,8.5,6.8,19.3,2.9,28.7&#10;&#9;&#9;&#9;c-3.9,9.5-12.3,16.3-22.4,18.3l-25.5,4.9l25.5,4.9c10.1,1.9,18.5,8.8,22.4,18.3c3.9,9.5,2.8,20.2-2.9,28.8l-14.6,21.6l21.6-14.6&#10;&#9;&#9;&#9;C1106.9,707,1112.8,705.2,1118.8,705.2z" transform="matrix(1, 0, 0, 1, -1007.9175853729248, -505.3982629776001)" style="fill: rgb(0, 0, 0);"/><path d="M 1197.79995 651.5 A 44.099998 44.099998 0 0 1 1153.699951 695.599998 A 44.099998 44.099998 0 0 1 1109.599953 651.5 A 44.099998 44.099998 0 0 1 1153.699951 607.400002 A 44.099998 44.099998 0 0 1 1197.79995 651.5 Z" id="XMLID_52_" fill="#FEC256" transform="matrix(1, 0, 0, 1, -1007.9175853729248, -507.1383447647095)" style="fill: rgb(237, 239, 240);"/>
<path id="XMLID_67_" fill="#732C2B" d="M1153.7,699.8c-26.6,0-48.3-21.7-48.3-48.3s21.7-48.3,48.3-48.3&#10;&#9;&#9;&#9;c26.6,0,48.3,21.7,48.3,48.3S1180.3,699.8,1153.7,699.8z M1153.7,611.5c-22,0-40,17.9-40,40s17.9,40,40,40c22,0,40-17.9,40-40&#10;&#9;&#9;&#9;S1175.7,611.5,1153.7,611.5z" transform="matrix(1, 0, 0, 1, -1007.9175853729248, -507.1383447647095)" style="fill: rgb(29, 155, 240);"/><path d="M 1112.0985107421875 555.6929931640625 L 1091.7974853515625 545.83251953125" style="fill: rgb(94, 218, 255); fill-opacity: 1; stroke: rgb(255, 247, 248); stroke-opacity: 1; stroke-width: 1; paint-order: stroke;" transform="matrix(1, 0, 0, 1, -803.1675853729248, -360.971230506897)"/></svg>